<svg width="213" height="135" viewBox="0 0 213 135" fill="none" xmlns="http://www.w3.org/2000/svg">
<path fill-rule="evenodd" clip-rule="evenodd" d="M180.8 1.0765C179.15 1.64816 177.314 2.33135 176.722 2.59442C176.129 2.85749 175.388 2.91451 175.075 2.72096C174.435 2.32585 172.93 3.35963 173.292 3.9453C173.42 4.15235 173.094 4.71151 172.567 5.18764C171.525 6.1319 170.317 5.7783 170.747 4.65499C171.05 3.86527 170.49 3.72374 169.772 4.40893C169.511 4.65849 168.408 5.10262 167.322 5.3967C165.731 5.82632 165.188 5.78681 164.532 5.19264C163.491 4.25138 163.045 4.25838 163.045 5.21615C163.045 5.63477 162.483 6.23343 161.795 6.54702C160.526 7.12518 160.221 8.17297 160.977 9.3638C161.311 9.89095 162.523 9.7194 167.096 8.49756C181.397 4.676 180.987 4.82504 182.049 3.07755C183.179 1.21954 185.051 0.830931 185.051 2.45488C185.051 3.12957 185.385 3.45516 186.077 3.45516C189.01 3.45516 191.064 5.79181 192.068 10.2731C192.366 11.6034 192.955 13.0728 193.377 13.539C193.808 14.0151 194.013 14.7993 193.845 15.3285C193.681 15.8466 193.977 17.6071 194.504 19.2405C195.03 20.874 195.741 23.5607 196.084 25.2112C196.427 26.8617 197.039 28.4826 197.444 28.8132C197.849 29.1438 198.045 29.767 197.88 30.1976C197.714 30.6287 198.149 33.0589 198.845 35.5986C201.713 46.0545 202.62 49.4574 203.81 54.2193C204.497 56.97 205.367 59.8958 205.742 60.7211C206.117 61.5463 206.663 63.4943 206.954 65.0498C207.247 66.6052 208.114 69.1934 208.882 70.8014C209.651 72.4093 210.379 73.9497 210.501 74.2248C210.622 74.4999 210.309 74.3874 209.807 73.9747C208.946 73.2685 208.918 73.3126 209.325 74.725C210.011 77.1036 209.811 79.3682 208.817 80.466C207.61 81.8004 204.334 83.5979 201.665 84.3911C200.172 84.8348 199.566 85.2694 199.664 85.826C199.742 86.2652 199.488 86.7348 199.101 86.8698C198.614 87.0389 198.493 86.8613 198.71 86.2962C199.091 85.3024 197.53 85.1899 195.103 86.0361C194.223 86.3427 193.352 86.4432 193.168 86.2587C192.669 85.7605 194.121 84.9943 195.579 84.9853C196.281 84.9813 197.068 84.7952 197.33 84.5717C197.591 84.3481 199.493 83.6309 201.556 82.9777C205.6 81.6974 208.058 79.7959 208.058 77.9483C208.058 76.9161 207.322 73.9562 203.465 59.4707C201.778 53.1325 198.635 41.2051 196.81 34.2137C196.164 31.738 195.05 27.5744 194.335 24.9611C193.62 22.3479 192.897 19.5831 192.728 18.8164C192.559 18.0502 192.011 17.204 191.509 16.9354C190.64 16.4703 190.632 16.5593 191.338 18.8289C191.745 20.1383 192.326 22.2229 192.629 23.4607C192.932 24.6986 193.83 27.8494 194.624 30.4627C195.418 33.0759 196.414 36.8854 196.836 38.9285C197.259 40.9711 197.715 42.8211 197.85 43.0387C198.223 43.6428 200.004 50.3702 200.611 53.469C200.908 54.982 201.706 57.9078 202.386 59.9709C203.22 62.5046 203.53 64.3151 203.34 65.5494C203.127 66.9363 203.359 67.9011 204.302 69.5505C204.986 70.7458 205.548 72.2028 205.551 72.7884C205.555 73.3736 205.895 74.1323 206.307 74.4749C207.468 75.4376 207.231 78.1934 205.847 79.8384C204.904 80.9587 203.898 81.4243 201.306 81.9395C199.468 82.3046 197.858 82.9087 197.713 83.2868C197.568 83.6634 197.24 83.842 196.984 83.6839C195.882 83.0027 192.299 84.1441 190.926 85.614C189.635 86.9964 189.408 87.0699 188.288 86.4707C187.215 85.8966 186.025 86.0731 178.68 87.8976C174.07 89.0429 168.722 90.4133 166.796 90.9425C159.898 92.8385 142.466 97.4813 142.245 97.4813C142.121 97.4813 142.157 98.0254 142.324 98.6906C142.657 100.017 141.492 100.982 139.556 100.982C138.979 100.982 137.108 101.464 135.397 102.052C133.686 102.64 131.499 103.299 130.536 103.515C129.573 103.732 126.76 104.466 124.285 105.147C121.809 105.829 118.77 106.54 117.533 106.729C116.295 106.917 113.369 107.712 111.031 108.496C107.549 109.663 98.4929 112.116 91.96 113.663C91.1778 113.849 90.5156 114.433 90.3266 115.106C90.0185 116.202 89.9865 116.207 89.2823 115.287C88.7631 114.609 88.3725 114.482 87.9149 114.843C87.2927 115.334 85.0466 116.064 83.5232 116.272C81.5021 116.548 64.7985 121.024 64.5514 121.356C64.3954 121.566 63.5927 121.805 62.7674 121.886C60.4578 122.113 49.5173 125.19 49.5152 125.614C49.5147 125.821 50.0604 125.989 50.7286 125.989C51.3963 125.989 52.318 126.364 52.7767 126.823C53.4643 127.51 53.886 127.561 55.1878 127.11C56.0556 126.809 60.1417 125.656 64.2678 124.546C68.394 123.437 73.4579 122.055 75.521 121.475C77.584 120.895 80.96 120.04 83.0231 119.574C85.0861 119.108 87.0367 118.558 87.3578 118.353C87.6788 118.147 89.0182 117.831 90.3341 117.651C91.6499 117.471 93.3004 117.024 94.0016 116.658C94.7028 116.292 95.7666 115.991 96.3653 115.989C97.0069 115.988 98.0702 115.239 98.9535 114.168C100.014 112.881 100.702 112.445 101.308 112.678C102.104 112.983 102.098 113.083 101.221 114.081C100.293 115.138 100.294 115.149 101.278 114.762C102.285 114.365 105.11 113.583 117.533 110.262C126.443 107.881 127.688 107.459 128.312 106.61C128.601 106.217 129.163 105.953 129.562 106.024C131.253 106.327 148.529 102.449 149.792 101.483C150.067 101.273 151.079 100.987 152.042 100.848C153.005 100.708 156.268 99.8749 159.294 98.9952C162.32 98.1154 165.583 97.2152 166.546 96.9946C171.531 95.8523 175.174 94.9086 176.414 94.4364C177.783 93.9163 193.633 89.6656 200.187 88.0611C202.41 87.517 203.489 87.0234 203.335 86.6218C203.011 85.7785 204.079 85.2044 204.55 85.9676C205.545 87.5765 210.549 84.9363 212.039 82.0165C213.558 79.0376 213.492 78.503 210.26 67.6385C209.837 66.2166 209.143 64.9197 208.718 64.7567C208.121 64.5281 208.076 64.3026 208.519 63.7684C208.956 63.2433 208.9 62.2225 208.288 59.5352C207.846 57.5882 207.626 55.7647 207.799 55.4831C207.973 55.2015 207.774 54.3523 207.356 53.5951C206.392 51.8506 204.557 45.0892 204.557 43.2842C204.557 42.531 203.9 40.1824 203.097 38.0643C202.294 35.9467 201.465 33.7636 201.256 33.2134C201.047 32.6633 200.82 31.8756 200.751 31.4629C200.028 27.1487 199.554 24.8631 199.296 24.4455C198.944 23.8768 198.443 20.2438 198.497 18.6544C198.516 18.0737 197.967 16.4273 197.276 14.9949C196.585 13.5625 195.726 10.8402 195.368 8.94569C194.689 5.35219 192.667 1.60815 191.155 1.14352C190.686 0.999477 189.912 0.672887 189.435 0.417816C188.014 -0.340395 184.008 -0.0348091 180.8 1.0765ZM181.442 6.35046C179.869 6.8226 178.186 7.60531 177.702 8.08945C176.861 8.93068 176.943 8.93418 179.52 8.16897C181.004 7.72835 182.783 7.15319 183.472 6.89111C186.562 5.71629 188.974 7.97392 190.086 13.0828C190.666 15.7471 191.553 17.0039 191.553 15.1609C191.553 13.4929 189.444 7.51279 188.58 6.73057C187.242 5.52073 184.664 5.3832 181.442 6.35046ZM154.385 8.6476C154.239 9.02771 153.371 9.45533 152.456 9.59787C151.541 9.74091 149.016 10.3436 146.845 10.9372C144.067 11.6974 142.742 11.86 142.369 11.4869C141.54 10.6582 140.681 10.8627 140.394 11.9575C140.233 12.5712 139.712 12.9578 139.045 12.9578C137.908 12.9578 130.924 15.1509 129.418 15.9806C128.94 16.2437 128.153 16.4568 127.667 16.4548C125.316 16.4438 114.176 19.7072 112.868 20.79C111.244 22.1343 110.432 22.2999 110.854 21.2006C111.097 20.5664 110.924 20.5254 109.805 20.9505C109.068 21.2311 107.93 21.4602 107.277 21.4602C106.623 21.4602 105.962 21.6637 105.809 21.9128C105.649 22.1719 106.439 22.2439 107.655 22.0818C109.593 21.8233 109.72 21.8718 109.094 22.6295C108.673 23.1396 107.669 23.4607 106.498 23.4607C105.447 23.4607 104.449 23.6858 104.279 23.9609C103.802 24.7321 103.029 24.553 103.029 23.6713C103.029 22.7565 102.224 22.8761 95.6441 24.7711C93.3704 25.4258 91.0878 25.9614 90.5711 25.9614C90.0545 25.9614 89.5023 26.2995 89.3438 26.7126C89.1628 27.1837 88.4441 27.4473 87.4148 27.4198C85.7903 27.3763 84.3449 27.6809 79.0379 29.1868C77.534 29.6134 75.722 29.9625 75.0118 29.9625C74.3016 29.9625 73.5064 30.1646 73.2453 30.4111C72.8052 30.8268 62.869 33.7066 56.5217 35.2585C55.0118 35.6276 53.7064 36.1392 53.6209 36.3958C53.5354 36.6529 52.6131 36.7484 51.5708 36.6084C50.411 36.4528 49.1116 36.6419 48.2199 37.096C47.4187 37.5041 45.1225 38.2563 43.1175 38.7675C40.1386 39.5267 39.4199 39.9043 39.1874 40.8315C38.8613 42.1304 38.0106 42.368 38.0106 41.1601C38.0106 40.1839 36.7497 40.3689 29.7213 42.3775C25.5736 43.5628 24.8174 43.9514 23.9296 45.3543C23.1814 46.5361 23.0884 46.9672 23.5825 46.9672C23.9537 46.9672 29.6582 45.5038 36.2601 43.7148C42.8619 41.9263 50.0639 39.9933 52.2645 39.4191C54.4651 38.8455 56.8283 38.1223 57.516 37.8117C58.2037 37.5016 59.2164 37.2055 59.7666 37.154C60.3167 37.1025 63.162 36.4313 66.0893 35.6621C69.8684 34.6693 71.3393 34.0752 71.1623 33.6135C70.8712 32.8553 71.6024 32.7458 72.3001 33.4435C72.6067 33.7501 73.9075 33.621 75.9011 33.0869C78.4923 32.3927 78.9739 32.0991 78.7384 31.3569C78.4023 30.2981 79.1585 30.1726 79.9712 31.1518C80.4523 31.7315 81.1955 31.6545 84.659 30.6657C86.9226 30.0195 89.1653 29.2593 89.6429 28.9767C90.1205 28.6937 91.0208 28.4571 91.6434 28.4511C92.2661 28.4451 95.2514 27.7844 98.2773 26.9832C109.805 23.9308 112.835 23.1051 114.532 22.5555C115.495 22.2434 118.645 21.3831 121.534 20.6434C124.422 19.9037 127.798 19.021 129.036 18.6814C130.274 18.3418 135.675 16.8979 141.039 15.473C146.403 14.0481 152.437 12.4422 154.448 11.9045C159.138 10.6512 160.13 10.052 159.492 8.85816C158.888 7.73035 154.801 7.5618 154.385 8.6476ZM174.493 8.17847C174.371 8.30051 171.689 9.10173 168.533 9.95847C165.377 10.8152 162.57 11.756 162.295 12.0495C161.676 12.7102 162.37 12.5717 170.407 10.4351C173.768 9.54185 176.399 8.61859 176.254 8.38353C175.975 7.9324 174.868 7.80337 174.493 8.17847ZM155.793 13.2434C153.593 13.8495 149.992 14.8473 147.791 15.461C145.59 16.0742 143.115 16.7514 142.29 16.9649C121.64 22.3199 114.532 24.394 114.532 25.0632C114.532 25.3192 115.038 25.3662 115.657 25.1677C116.276 24.9691 117.458 24.6295 118.283 24.4135C119.108 24.1974 123.609 22.9926 128.286 21.7372C152.603 15.2064 157.47 13.9581 158.607 13.9581C159.527 13.9581 160.808 12.6557 160.194 12.3436C159.974 12.2321 157.994 12.6372 155.793 13.2434ZM105.569 26.7411C100.937 28.052 98.8595 29.2853 102.278 28.6937C103.379 28.5036 105.629 27.941 107.28 27.4438C108.93 26.9467 111.181 26.3205 112.281 26.0519L114.282 25.5648L112.031 25.5563C110.793 25.5518 107.885 26.0849 105.569 26.7411ZM94.6148 29.7185C90.5076 30.8538 89.6324 31.2369 90.0935 31.6985C90.5046 32.1096 100.013 29.3428 99.7347 28.8927C99.4086 28.3646 99.6622 28.3236 94.6148 29.7185ZM85.6838 32.1786C83.3687 32.7708 82.3254 33.4755 83.8148 33.4415C85.7328 33.3975 89.7269 32.1321 88.7331 31.8836C88.206 31.7515 86.8336 31.8846 85.6838 32.1786ZM175.308 32.7623C172.772 33.6906 170.229 36.1477 169.492 38.3829C168.679 40.8435 169.23 48.0746 170.505 51.6786C172.909 58.4764 175.805 61.4943 180.28 61.8654C188.858 62.5771 192.999 55.6737 190.279 45.1968C188.56 38.5759 185.992 34.6203 182.301 32.9113C179.927 31.8125 178.015 31.7715 175.308 32.7623ZM79.0745 34.0061C78.4153 34.2697 77.9987 34.6073 78.1482 34.7569C78.5628 35.172 82.0228 34.4138 82.0228 33.9081C82.0228 33.3415 80.6189 33.3885 79.0745 34.0061ZM72.5201 35.6696C71.2823 36.0207 68.3005 36.8384 65.8933 37.4866C63.4866 38.1353 61.5171 38.8455 61.5171 39.0655C61.5171 39.2851 61.7987 39.4602 62.1423 39.4537C63.4481 39.4301 74.6327 36.0522 75.1639 35.5211C75.8536 34.8314 75.3834 34.8579 72.5201 35.6696ZM180.247 37.5121C182.016 38.904 183.403 41.7263 184.582 46.3376C186.031 52.0011 185.772 55.8047 183.851 57.0876C182.698 57.8573 180.219 57.4637 179.171 56.3448C176.914 53.9347 174.548 46.4646 174.548 41.7458C174.548 39.4121 174.763 38.7054 175.776 37.6922C177.279 36.1893 178.502 36.1397 180.247 37.5121ZM157.294 38.1973C155.006 38.915 155.027 38.5784 156.861 45.1637C157.542 47.6104 157.915 49.797 157.689 50.0231C157.462 50.2497 155.753 50.8343 153.889 51.323C151.316 51.9981 150.412 52.0682 150.132 51.6145C149.929 51.2859 149.21 48.8443 148.534 46.1895L147.306 41.3622L145.068 41.6688C143.837 41.8373 142.63 42.1754 142.386 42.4195C142.128 42.6776 143.24 47.6389 145.048 54.2928C146.756 60.579 148.391 66.6787 148.682 67.848C149.102 69.538 149.434 69.9736 150.301 69.9736C151.691 69.9736 154.543 68.9904 154.543 68.5112C154.543 68.3107 153.868 65.742 153.042 62.8031C152.217 59.8643 151.542 57.2591 151.542 57.0135C151.542 56.6134 157.76 54.4693 158.919 54.4693C159.178 54.4693 160.13 57.1896 161.036 60.514L162.682 66.5582L164.48 66.2211C167.821 65.5944 168.047 65.3053 167.308 62.6026C165.079 54.4503 161.535 41.3912 161.063 39.5902C160.464 37.3021 160.318 37.248 157.294 38.1973ZM55.2653 40.3004C50.9511 41.6098 32.6411 46.4136 30.3834 46.8282C29.0676 47.0698 28.6955 47.4884 29.2781 48.071C29.5382 48.3306 32.7736 47.5334 45.7627 44.0094C49.0636 43.1137 52.6646 42.1464 53.7649 41.8598C56.7443 41.0841 60.0127 39.7662 60.0147 39.3401C60.0172 38.859 60.0017 38.8625 55.2653 40.3004ZM12.8871 46.9302C8.2838 48.2566 3.9546 49.711 3.26591 50.1626C1.71248 51.1804 0 54.4438 0 56.3869C0 57.1881 0.440122 59.5037 0.978772 61.5328C1.51692 63.5624 2.67174 67.9231 3.54548 71.224C4.64929 75.3941 5.45702 77.4917 6.19272 78.0974C7.06296 78.8131 7.12648 79.0501 6.54882 79.4253C5.82212 79.8969 5.94915 80.7606 7.62162 86.7283C7.9302 87.8286 8.12826 89.0269 8.06174 89.391C7.85868 90.5073 8.94248 91.3526 10.2558 91.1015C11.7238 90.8204 11.8583 91.5366 10.7405 93.6807C10.0633 94.9786 10.0658 95.4532 10.7615 98.182C12.3534 104.425 12.557 104.983 13.2417 104.983C13.7618 104.983 13.8684 105.432 13.6568 106.734C13.4767 107.845 13.5738 108.484 13.9229 108.484C14.225 108.484 14.343 108.147 14.1849 107.734C13.6928 106.452 14.9932 106.912 15.5953 108.234C16.0315 109.192 16.0104 109.952 15.5043 111.485C14.9907 113.041 14.9707 113.903 15.4148 115.361C15.7284 116.393 16.6876 119.973 17.5469 123.316C19.4249 130.626 20.3251 132.246 23.2204 133.527C26.1012 134.801 27.096 134.8 31.2587 133.519C33.1842 132.926 35.6599 132.221 36.7602 131.952C40.2122 131.11 40.3282 131.011 38.8008 130.219C37.0263 129.299 34.143 129.29 30.8356 130.196C26.7519 131.315 22.0061 131.626 22.0061 130.775C22.0061 130.389 22.2877 129.979 22.6313 129.863C23.1204 129.699 23.1089 129.474 22.5788 128.832C22.2062 128.38 21.5125 126.487 21.0378 124.624C20.2976 121.721 20.0196 121.243 19.0898 121.277C18.4931 121.299 18.005 121.018 18.005 120.652C18.005 120.287 18.4331 119.988 18.9563 119.988C19.862 119.988 19.872 119.873 19.1658 117.612C18.7577 116.305 17.99 113.436 17.4598 111.235C16.9297 109.034 16.288 106.784 16.0345 106.234C15.7804 105.684 15.4683 104.558 15.3413 103.733C15.2142 102.908 14.7316 100.882 14.2685 99.2318C13.8053 97.5813 12.75 93.7552 11.9233 90.7294C9.51214 81.9019 9.54315 81.9785 8.33832 81.961C7.32904 81.9465 7.31403 81.8979 8.12726 81.2808C9.08952 80.5506 9.28608 79.2102 8.50236 78.7261C8.22728 78.556 8.00222 77.7683 8.00222 76.9756C8.00222 76.1829 7.76516 75.3876 7.47558 75.2086C7.186 75.03 7.04146 74.6224 7.15399 74.3038C7.26652 73.9852 7.17849 73.237 6.95843 72.6414C6.04068 70.1557 3.00083 57.9313 3.00083 56.7265C3.00083 54.7619 4.28169 52.6748 5.85312 52.0792C7.36705 51.505 11.4907 50.3087 14.8626 49.4654C16.0224 49.1754 17.1998 48.5512 17.4794 48.0776C17.8685 47.4179 18.084 47.3643 18.4041 47.8485C19.0068 48.7597 22.0061 47.6519 22.0061 46.5181C22.0061 46.05 22.2762 45.3968 22.6063 45.0667C23.6556 44.0174 21.6845 44.395 12.8871 46.9302ZM125.285 47.1458L123.284 47.7475L122.907 59.2356C122.7 65.5544 122.588 72.3238 122.657 74.2788L122.784 77.8338L125.14 77.1451L127.495 76.4569L127.64 72.3898L127.785 68.3227L131.036 67.4154C132.824 66.9163 134.45 66.4997 134.65 66.4902C134.849 66.4807 135.853 67.9356 136.882 69.7236C137.91 71.5116 139.054 72.9745 139.424 72.9745C140.415 72.9745 144.54 71.8922 144.54 71.6321C144.54 71.5091 141.025 65.797 136.728 58.9381C131.553 50.6778 128.64 46.4801 128.101 46.5056C127.652 46.5266 126.385 46.8147 125.285 47.1458ZM17.0047 50.4867C10.845 52.1557 8.6459 52.8429 7.18199 53.5571C5.93215 54.1667 5.00139 55.9792 5.00139 57.8033C5.00139 58.8876 7.98022 70.4013 13.7793 91.7297C17.6594 106.001 18.4941 109.168 18.7897 110.743C19.0858 112.321 20.0056 113.239 20.0056 111.955C20.0056 111.432 16.211 96.688 13.7063 87.4785C11.2216 78.344 10.5119 75.6742 8.71892 68.7233C7.72565 64.8722 6.73937 61.4963 6.52731 61.2212C6.31475 60.9461 6.1092 59.6918 6.07069 58.4334C5.97416 55.3051 7.17099 54.2863 12.5135 52.9489C18.0405 51.565 23.6326 49.852 24.2317 49.3589C25.1335 48.6167 22.2392 49.0683 17.0047 50.4867ZM102.318 53.3835C98.7644 54.3933 95.7691 55.4856 95.6611 55.8112C95.5535 56.1363 96.2672 59.5912 97.2465 63.4888C99.4131 72.1092 99.7397 78.8551 98.0482 80.0404C97.0835 80.7166 97.09 80.8001 98.4968 85.728L99.9248 90.7294L101.526 90.5959C102.406 90.5223 103.533 90.2443 104.031 89.9782C104.866 89.5311 104.882 89.3135 104.232 87.1564C103.042 83.2008 103.001 83.2538 108.405 81.7714C111.087 81.0357 113.661 80.32 114.124 80.1815C114.794 79.9814 115.142 80.5526 115.82 82.9672C116.288 84.6382 116.823 86.0986 117.007 86.2126C117.624 86.5932 121.534 85.3644 121.528 84.7917C121.518 83.923 119.1 75.3756 118.771 75.046C118.61 74.886 117.994 74.7485 117.401 74.74C116.474 74.727 116.155 74.1208 115.15 70.4738C110.677 54.2333 109.831 51.473 109.336 51.508C109.03 51.5295 105.872 52.3732 102.318 53.3835ZM129.983 57.5572C131.387 60.2179 132.537 62.6106 132.537 62.8742C132.537 63.4588 128.172 64.6156 127.51 64.206C127.249 64.045 127.035 61.3007 127.035 58.1073C127.035 54.9145 127.124 52.3957 127.232 52.5103C127.34 52.6253 128.578 54.8959 129.983 57.5572ZM108.462 66.9623C109.859 72.0452 110.84 76.3474 110.641 76.5219C110.443 76.6965 109.24 77.0911 107.969 77.3987C106.698 77.7063 105.325 78.0854 104.918 78.2419C104.3 78.479 104.129 77.5512 103.882 72.6244C103.702 69.0229 103.185 65.3118 102.557 63.1032C101.991 61.1122 101.528 59.1651 101.528 58.7765C101.528 58.0473 105.02 56.887 105.6 57.4231C105.776 57.5867 107.064 61.8789 108.462 66.9623ZM74.4577 60.9036C70.8002 63.2233 69.4978 67.4029 70.4971 73.6116C72.4761 85.9036 79.3275 91.8257 87.1747 88.0266C90.6302 86.3542 92.1831 83.5029 92.2036 78.7936C92.2381 70.8169 88.5956 62.5856 83.9738 60.1954C83.2031 59.7968 81.2551 59.4707 79.6446 59.4707C77.2815 59.4707 76.2812 59.7468 74.4577 60.9036ZM80.6329 63.9995C82.3514 64.7827 83.9593 67.4379 85.3312 71.7576C87.6453 79.0436 87.3793 82.7882 84.4304 84.4431C83.2741 85.0923 82.929 85.0963 81.7707 84.4767C78.9454 82.9642 75.9076 75.2191 75.8211 69.3074C75.775 66.1546 75.8796 65.797 77.1744 64.6812C78.7609 63.3138 79.0174 63.2633 80.6329 63.9995ZM51.6463 67.4209C48.8306 68.1751 46.4244 68.8948 46.2994 69.0199C46.1743 69.1454 46.5994 71.155 47.2441 73.4866C47.8888 75.8183 49.2467 80.7641 50.262 84.4777C51.2767 88.1912 52.4461 92.4319 52.8602 93.9018L53.6129 96.574L55.4304 96.2329C59.0874 95.5467 59.0644 95.6182 57.4585 89.8692C56.6682 87.0414 56.0206 84.6117 56.0186 84.4702C56.0171 84.3281 57.1974 83.795 58.6413 83.2848C64.1403 81.3428 66.535 76.794 64.8035 71.5801C63.9112 68.8948 62.5444 67.3339 60.3593 66.5062C58.3982 65.763 57.4715 65.8605 51.6463 67.4209ZM58.2552 71.5991C59.8966 73.025 60.4523 75.9858 59.3845 77.6153C58.5573 78.8786 55.2013 80.182 54.7317 79.4223C54.4596 78.9821 52.5146 72.2468 52.5146 71.7446C52.5146 71.4926 55.3244 70.5973 56.3627 70.5188C56.6912 70.4943 57.543 70.9799 58.2552 71.5991ZM35.5099 71.7566C34.272 72.1482 30.5585 73.1775 27.2576 74.0438C23.9567 74.9105 21.0709 75.7832 20.8443 75.9838C20.6182 76.1839 22.0811 82.4501 24.0952 89.9077C27.4086 102.175 27.8577 103.468 28.8085 103.475C30.2549 103.486 33.0092 102.482 33.0092 101.944C33.0092 101.701 31.6588 96.5605 30.0083 90.5203C28.3579 84.4802 27.0075 79.3442 27.0075 79.1077C27.0075 78.3565 33.9489 76.5425 34.4176 77.1711C34.6446 77.4762 36.12 82.5646 37.696 88.4788C39.2719 94.3929 40.7458 99.4163 40.9714 99.6419C41.412 100.082 44.4148 99.6599 45.4671 99.0097C45.9628 98.7036 45.2696 95.5272 42.3993 84.9493C40.3597 77.4332 38.4817 71.2305 38.2261 71.1645C37.97 71.0984 36.7477 71.365 35.5099 71.7566ZM192.053 86.1986C192.053 86.3202 191.828 86.5582 191.553 86.7283C191.278 86.8983 191.053 86.7988 191.053 86.5077C191.053 86.2166 191.278 85.9781 191.553 85.9781C191.828 85.9781 192.053 86.0771 192.053 86.1986ZM184.518 88.6298C184.16 88.9074 175.669 91.3511 169.899 92.8375C164.823 94.1453 164.517 94.2959 164.782 95.3547C165.13 96.7391 164.409 96.8231 163.481 95.5067C162.851 94.612 162.612 94.585 160.545 95.1721C159.307 95.5237 157.956 95.9543 157.544 96.1284C156.904 96.3985 150.292 98.0004 146.666 98.7636C146.047 98.8942 145.54 98.7871 145.54 98.5266C145.54 98.0904 148.628 97.0301 152.292 96.2074C156.212 95.3277 160.882 93.7692 161.682 93.0745C162.276 92.5584 162.735 92.4694 163.071 92.8055C163.407 93.1421 165.505 92.758 169.418 91.6436C172.632 90.7284 175.62 89.9792 176.058 89.9792C176.496 89.9792 178.418 89.4435 180.328 88.7884C182.314 88.1072 184.001 87.7826 184.268 88.0296C184.525 88.2677 184.637 88.5378 184.518 88.6298ZM139.093 98.5236C138.434 98.7866 136.331 99.3583 134.417 99.7934C132.02 100.339 131.099 100.745 131.456 101.102C132.112 101.758 140.611 99.5153 140.914 98.6066C141.157 97.8794 140.748 97.8609 139.093 98.5236ZM128.765 101.516C128.583 101.81 128.163 101.947 127.831 101.819C127.343 101.632 123.285 102.59 117.533 104.25C117.12 104.369 114.194 105.159 111.031 106.006C107.867 106.852 101.341 108.642 96.5268 109.983C91.713 111.325 84.9611 113.129 81.5226 113.992C73.6485 115.969 71.5199 116.633 71.5199 117.108C71.5199 117.317 71.8059 117.487 72.1555 117.487C72.7577 117.487 85.0241 114.266 101.028 109.906C105.017 108.82 109.068 107.737 110.031 107.5C122.771 104.365 129.676 102.313 129.917 101.59C130.167 100.841 129.22 100.78 128.765 101.516ZM20.5057 116.346C20.5057 117.75 21.0033 118.987 21.569 118.987C22.0886 118.987 21.601 116.481 20.9413 115.761C20.6812 115.478 20.5057 115.714 20.5057 116.346ZM89.0247 115.975C89.0247 116.705 86.6476 118.122 86.0459 117.75C85.2387 117.252 85.4202 116.775 86.6491 116.166C88.1175 115.439 89.0247 115.366 89.0247 115.975ZM64.0178 118.702C61.6796 119.321 58.4162 120.239 56.7658 120.742C53.5254 121.729 53.2718 121.79 51.7644 121.927C50.8176 122.014 50.8126 122.047 51.6743 122.548C52.5351 123.048 58.5938 121.659 66.4109 119.17C67.5898 118.794 68.9832 118.487 69.5073 118.487C70.0314 118.487 70.5996 118.262 70.7697 117.987C71.2578 117.198 68.6676 117.472 64.0178 118.702ZM21.8376 120.856C21.648 121.162 21.7055 121.936 21.9651 122.576C22.2247 123.215 22.5768 124.386 22.7473 125.178C23.1594 127.089 25.6166 129.49 27.1615 129.49C27.8387 129.49 29.4882 129.169 30.8261 128.775C32.1644 128.382 35.1723 127.566 37.5104 126.96C43.8407 125.321 45.7047 124.667 45.103 124.295C44.6359 124.006 36.6687 125.927 34.5096 126.848C34.097 127.024 33.4088 127.208 32.9802 127.257C32.5515 127.305 31.0106 127.629 29.5557 127.978C27.137 128.558 26.7969 128.529 25.5836 127.632C24.8189 127.066 23.9767 125.716 23.5961 124.444C22.5308 120.886 22.2162 120.244 21.8376 120.856ZM47.8468 123.322C47.1911 123.978 47.5302 124.391 48.5135 124.134C49.0636 123.99 49.5137 123.673 49.5137 123.43C49.5137 122.913 48.3319 122.837 47.8468 123.322ZM43.387 126.641C41.4205 127.192 41.0299 127.698 42.2202 128.155C42.6103 128.304 43.0535 128.103 43.205 127.708C43.3565 127.313 43.9377 126.989 44.4969 126.989C45.0555 126.989 45.5126 126.764 45.5126 126.489C45.5126 126.214 45.4566 126.018 45.3876 126.052C45.3186 126.087 44.4188 126.352 43.387 126.641ZM47.2961 128.439C46.7645 128.647 46.5394 128.947 46.796 129.106C47.0531 129.264 47.9383 129.096 48.7635 128.732C49.8924 128.235 50.0164 128.07 49.2637 128.066C48.7135 128.062 47.8283 128.23 47.2961 128.439ZM44.5124 128.99C44.5124 129.265 44.7374 129.49 45.0125 129.49C45.2876 129.49 45.5126 129.265 45.5126 128.99C45.5126 128.715 45.2876 128.49 45.0125 128.49C44.7374 128.49 44.5124 128.715 44.5124 128.99Z" fill="#9D0000"/>
</svg>
